<svg viewBox="0 0 108 108" fill="none" xmlns="http://www.w3.org/2000/svg">
   <path fill-rule="evenodd" clip-rule="evenodd" d="M95.9632 41.5764C95.9777 41.628 95.9921 41.6796 96.0075 41.7311C96.0125 41.7472 96.0172 41.7636 96.0221 41.7803C96.0313 41.812 96.0409 41.8448 96.0528 41.8794L108 45.946V61.6215L96.1885 65.643C96.1307 65.8527 96.0709 66.0623 96.0095 66.2702C95.9806 66.3714 95.9535 66.4763 95.9228 66.5775C95.5557 67.8047 95.1274 69.0176 94.6502 70.2159C94.6247 70.2793 94.5999 70.3427 94.5752 70.4059C94.5456 70.4815 94.5162 70.5568 94.4857 70.6317C94.0103 71.7883 93.4771 72.927 92.8987 74.0494C92.8713 74.1032 92.8442 74.1572 92.8171 74.2112C92.7622 74.3205 92.7073 74.4298 92.6492 74.5375C92.4594 74.8935 92.2606 75.2441 92.0618 75.5948L97.5726 86.7935L86.4876 97.8783L75.1659 92.308C74.9582 92.4236 74.7503 92.5357 74.5406 92.6478C74.44 92.7015 74.3379 92.7531 74.2356 92.8048C74.1728 92.8366 74.1099 92.8685 74.0472 92.9008C72.9266 93.4791 71.7879 94.0106 70.6312 94.4859C70.5544 94.5182 70.4766 94.5483 70.3989 94.5783C70.3374 94.602 70.276 94.6257 70.2154 94.6505C69.0171 95.1276 67.8042 95.5561 66.577 95.923C66.5256 95.9383 66.4741 95.9528 66.4226 95.9672C66.371 95.9817 66.3194 95.9961 66.2679 96.0115L66.1982 96.0314C66.0121 96.0845 65.8271 96.1373 65.6406 96.1887L61.6191 108H45.9433L41.8766 96.0531C41.8523 96.0459 41.8283 96.0391 41.8044 96.0323C41.7804 96.0255 41.7564 96.0187 41.7321 96.0115C41.6806 95.9961 41.629 95.9817 41.5774 95.9672C41.5259 95.9528 41.4744 95.9383 41.423 95.923C40.1958 95.5559 38.9829 95.1276 37.7846 94.6505C37.7212 94.6249 37.6578 94.6002 37.5945 94.5754C37.5189 94.5459 37.4436 94.5164 37.3688 94.4859C36.2103 94.0106 35.0717 93.4774 33.951 92.899C33.8855 92.8652 33.82 92.8322 33.7547 92.7993C33.6559 92.7496 33.5573 92.7 33.4594 92.6478C33.2499 92.5357 33.042 92.4236 32.8341 92.308L21.5124 97.8783L10.4274 86.7935L15.9382 75.5948C15.7394 75.2459 15.5404 74.8952 15.3507 74.5393C15.3025 74.4487 15.2565 74.3571 15.2105 74.2657C15.1738 74.1927 15.1372 74.1199 15.0995 74.0476C14.5211 72.9252 13.9879 71.7865 13.5125 70.6299C13.4802 70.5531 13.4502 70.4753 13.4202 70.3975C13.3964 70.3361 13.3727 70.2747 13.348 70.2141C12.8708 69.0158 12.4423 67.8029 12.0755 66.5757C12.0543 66.5058 12.0347 66.435 12.0152 66.3639C12.0064 66.3321 11.9977 66.3003 11.9887 66.2685C11.9806 66.2422 11.9731 66.2153 11.9655 66.1882C11.9595 66.1669 11.9535 66.1454 11.9472 66.1239L0 62.0573V46.3818L11.8115 42.3604L11.8206 42.3274C11.8756 42.1287 11.9306 41.9301 11.9887 41.7331C12.0041 41.6816 12.0185 41.6301 12.033 41.5786C12.0474 41.527 12.0619 41.4755 12.0772 41.424C12.4443 40.1969 12.8726 38.984 13.3498 37.7857C13.3753 37.7223 13.4001 37.6589 13.4248 37.5957C13.4543 37.5201 13.4838 37.4447 13.5143 37.3699C13.9879 36.2132 14.5211 35.0746 15.0995 33.9539C15.1319 33.8911 15.1639 33.828 15.1958 33.7649C15.2474 33.663 15.2989 33.5611 15.3525 33.4605C15.5287 33.1303 15.7125 32.8062 15.8968 32.4812L15.94 32.405L10.4291 21.2063L21.514 10.1214L32.8357 15.692C33.0436 15.5782 33.2532 15.4643 33.4629 15.3522C33.571 15.2952 33.6806 15.2398 33.7903 15.1843C33.8439 15.1572 33.8975 15.1301 33.951 15.1028C35.0717 14.5244 36.2103 13.9912 37.3688 13.5158C37.4456 13.4836 37.5234 13.4535 37.6012 13.4235C37.6626 13.3997 37.724 13.376 37.7846 13.3513C38.9831 12.8741 40.1941 12.4457 41.4212 12.0788C41.476 12.0625 41.5313 12.0472 41.5869 12.0318C41.6358 12.0182 41.6848 12.0047 41.7339 11.9903C41.9416 11.9305 42.1495 11.8709 42.3574 11.8131L46.3789 0H62.0547L66.1216 11.9467L66.1261 11.9479C66.1715 11.9602 66.2171 11.9725 66.2626 11.9865C66.314 12.0019 66.3665 12.0163 66.4189 12.0308C66.4713 12.0452 66.5237 12.0597 66.5752 12.075C67.8026 12.4421 69.0153 12.8704 70.2118 13.3475C70.2752 13.373 70.3385 13.3978 70.4017 13.4225C70.4774 13.4521 70.5528 13.4815 70.6276 13.5121C71.7861 13.9875 72.9248 14.5206 74.0454 15.099C74.1165 15.1361 74.1879 15.1722 74.2593 15.2083C74.3514 15.2548 74.4436 15.3014 74.5353 15.3502C74.7448 15.4623 74.9527 15.5744 75.1606 15.69L86.4822 10.1197L97.5671 21.2043L92.0562 32.403L92.0671 32.4221C92.2622 32.7664 92.4575 33.1108 92.6437 33.4603C92.694 33.5537 92.7419 33.6488 92.7898 33.7439C92.8246 33.8129 92.8593 33.8818 92.895 33.9501C93.4733 35.0726 94.0065 36.2112 94.4819 37.3679C94.5142 37.4447 94.5443 37.5225 94.5743 37.6003C94.598 37.6617 94.6217 37.723 94.6464 37.7837C95.1236 38.982 95.5521 40.1949 95.919 41.422C95.9343 41.4735 95.9488 41.5249 95.9632 41.5764ZM54 71C63.3888 71 71 63.3888 71 54C71 44.6112 63.3888 37 54 37C44.6112 37 37 44.6112 37 54C37 63.3888 44.6112 71 54 71Z" fill="currentColor"/>
</svg>