<svg width="50" height="22" xmlns="http://www.w3.org/2000/svg" viewBox="0 0 50 22"><g fill="none" class="nc-icon-wrapper"><path d="M16.291 3.629l-1.123 1.955 2.001 1.16a9.481 9.481 0 0 0-.703 2.644h-2.312v2.258h2.309c.105.911.342 1.802.703 2.645l-2.002 1.16 1.124 1.955 2.001-1.16a9.626 9.626 0 0 0 1.926 1.935l-.647 1.128C9.718 17.03 1 10.516 1 10.516S9.673 3.99 19.564 1.719l.65 1.135a9.646 9.646 0 0 0-1.925 1.936l-1.998-1.16z" fill="currentColor"></path><path d="M24.913 15.033a4.473 4.473 0 0 1-2.496-.761 4.51 4.51 0 0 1-1.655-2.027 4.54 4.54 0 0 1 .973-4.922 4.47 4.47 0 0 1 4.896-.979c.82.342 1.522.921 2.016 1.664a4.533 4.533 0 0 1-.559 5.702 4.49 4.49 0 0 1-3.175 1.323z" fill="currentColor"></path><path d="M48.824 10.517s-8.718 6.512-18.566 8.792l-.65-1.129a9.595 9.595 0 0 0 1.924-1.935l2.001 1.16 1.124-1.953-2.002-1.16a9.482 9.482 0 0 0 .705-2.646h2.31V9.388h-2.31a9.484 9.484 0 0 0-.703-2.645l2.002-1.16-1.126-1.954-2.001 1.16a9.594 9.594 0 0 0-1.925-1.936l.65-1.13c9.872 2.275 18.567 8.793 18.567 8.793z" fill="currentColor"></path></g></svg>