<svg width="50" height="20" xmlns="http://www.w3.org/2000/svg" viewBox="0 0 50 20"><g fill="none" class="nc-icon-wrapper"><path d="M0 9.516S12.713 0 24.913 0C37.06 0 49.824 9.516 49.824 9.516S37.017 19.03 24.913 19.03C12.808 19.031 0 9.516 0 9.516z" fill="url(#paint0_linear)"></path><path d="M15.291 2.669l-1.123 1.944 2.001 1.153a9.39 9.39 0 0 0-.703 2.63h-2.312v2.246h2.309a9.39 9.39 0 0 0 .703 2.63l-2.002 1.154 1.124 1.945 2.001-1.154a9.6 9.6 0 0 0 1.926 1.925l-.647 1.122C8.718 15.997 0 9.52 0 9.52s8.673-6.49 18.564-8.75l.65 1.127a9.62 9.62 0 0 0-1.925 1.926L15.291 2.67z" fill="#131314"></path><path d="M24.913 14.01a4.492 4.492 0 1 1-.002-8.982 4.492 4.492 0 0 1 .002 8.983z" fill="#131314"></path><path d="M49.824 9.52s-8.718 6.477-18.566 8.744l-.651-1.122a9.569 9.569 0 0 0 1.925-1.925l2.001 1.154 1.124-1.943-2.002-1.154a9.391 9.391 0 0 0 .705-2.631h2.31V8.396h-2.31a9.393 9.393 0 0 0-.703-2.63l2.001-1.154-1.125-1.944-2.001 1.154a9.567 9.567 0 0 0-1.925-1.926l.65-1.125C41.129 3.036 49.824 9.52 49.824 9.52z" fill="#131314"></path><defs><linearGradient id="paint0_linear" x1="38.176" y1="-7.095" x2="10.811" y2="18.919" gradientUnits="userSpaceOnUse"><stop offset=".012" stop-color="#EBFF4B"></stop><stop offset=".524" stop-color="#FF5F4B"></stop><stop offset=".987" stop-color="#5F4BFF"></stop></linearGradient></defs></g></svg>