<svg xmlns="http://www.w3.org/2000/svg" viewBox="0 0 24 24">
  <g fill="none" class="nc-icon-wrapper">
    <path fill-rule="evenodd" clip-rule="evenodd" d="M9.555 9.832A1 1 0 0 0 10 9V5a3 3 0 0 0-3-3H3a1 1 0 0 0-1 1c0 9.941 9.059 19 19 19a1 1 0 0 0 1-1v-4a3 3 0 0 0-3-3h-4a1 1 0 0 0-.832.445l-1.905 2.858A18.887 18.887 0 0 1 6.97 12.15l-.274-.412 2.858-1.905.001-.001zM15.535 16H19a1 1 0 0 1 1 1v2.965c-1.937-.134-3.828-.652-5.591-1.473l-.405-.195L15.535 16zM4.035 4H7a1 1 0 0 1 1 1v3.465l-2.297 1.53C4.77 8.119 4.18 6.087 4.035 4z" fill="currentColor"></path>
  </g>
</svg>