<svg width="437" height="441" viewBox="0 0 437 441" fill="none" xmlns="http://www.w3.org/2000/svg">
<g clip-path="url(#clip0)">
<path d="M22.7627 156.129C13.8432 177.318 7.49815 199.504 3.86412 222.21C2.98219 227.883 2.24199 233.583 1.76428 239.305L1.57004 241.45L1.4283 243.622C1.34431 245.057 1.20257 246.487 1.16057 247.923C1.11858 249.358 1.01883 250.789 1.01883 252.224C1.01883 253.66 0.976836 255.095 1.01883 256.531C1.24088 268.021 2.78752 279.448 5.62799 290.583C8.42436 301.727 12.2921 312.573 17.1771 322.969C19.6059 328.168 22.2587 333.251 25.1355 338.218C28.0071 343.193 31.1201 348.02 34.4011 352.726C47.5755 371.587 63.8115 388.104 82.435 401.591C101.039 415.104 121.824 425.314 143.882 431.774C165.953 438.166 188.934 440.831 211.88 439.661C213.313 439.624 214.741 439.504 216.174 439.409C217.607 439.314 219.03 439.225 220.458 439.099L224.736 438.678C225.45 438.604 226.164 438.547 226.878 438.457L229.009 438.189L233.272 437.663L237.519 436.995C240.359 436.596 243.162 435.991 245.981 435.47L250.181 434.666C251.588 434.408 252.979 434.051 254.381 433.746L258.58 432.799L260.68 432.321L261.73 432.084L262.78 431.811L271.101 429.623L272.151 429.35L273.2 429.04L275.258 428.419L279.374 427.173C290.316 423.77 301.041 419.705 311.491 415C321.913 410.231 331.999 404.755 341.676 398.61C361.097 386.376 378.355 370.997 392.745 353.099L395.411 349.734L396.078 348.893L396.703 348.02L397.952 346.274L400.451 342.782L401.7 341.031L402.861 339.228L405.186 335.615L406.352 333.812L406.929 332.907L407.454 331.977L411.759 324.526C417.168 314.413 421.71 303.859 425.334 292.976L426.689 288.895L427.03 287.875L427.313 286.824L427.891 284.752L429.035 280.608C429.418 279.225 429.828 277.853 430.111 276.444L431.996 268.031C432.521 265.207 432.983 262.378 433.482 259.554L433.849 257.451L434.122 255.316L434.647 251.046L435.172 246.771L435.503 242.481L435.828 238.19L435.991 236.044C436.054 235.329 436.043 234.609 436.075 233.894L436.332 225.286C436.381 213.801 435.79 202.321 434.563 190.902C433.262 179.489 431.235 168.171 428.494 157.017L427.413 152.848C427.056 151.459 426.715 150.066 426.269 148.699L423.738 140.47L420.851 132.356L420.483 131.346L420.079 130.347L419.26 128.36L417.628 124.374C413.128 113.809 407.692 103.669 401.385 94.0757C388.764 74.8278 372.474 58.2633 353.451 45.3313C343.981 38.8557 333.984 33.19 323.565 28.3943C313.111 23.6679 302.328 19.7068 291.301 16.5422C288.54 15.785 285.784 14.991 283.012 14.2601L274.613 12.3145L272.513 11.8255C271.815 11.6677 271.106 11.552 270.413 11.4153L266.187 10.6108C263.368 10.085 260.565 9.5013 257.719 9.1227L249.215 7.85545C246.396 7.52418 243.524 7.20868 240.674 6.88267L236.401 6.40942L232.112 6.08341L223.534 5.42086L223.56 5.02649L232.143 5.68378L236.437 6.01505L240.711 6.49355C243.561 6.82483 246.417 7.11929 249.268 7.47685L257.777 8.76514C260.622 9.14373 263.436 9.73792 266.255 10.269L270.481 11.0735C271.185 11.2155 271.893 11.3312 272.581 11.4889L274.681 11.9832L283.08 13.9446C285.852 14.6807 288.613 15.4747 291.38 16.2424C294.146 17.0101 296.871 17.9041 299.601 18.7927L303.695 20.1283L304.714 20.4648L305.722 20.8487L307.738 21.6111L311.764 23.1308C313.103 23.6566 314.468 24.1036 315.77 24.7083L323.675 28.1262C334.107 32.9239 344.117 38.5931 353.598 45.0737C372.668 58.0262 388.997 74.6234 401.648 93.9127C407.965 103.522 413.411 113.677 417.922 124.258L419.56 128.249L420.378 130.242L420.788 131.241L421.155 132.256L424.053 140.375L426.589 148.62C427.035 149.987 427.376 151.386 427.738 152.774L428.82 156.949C431.573 168.116 433.611 179.448 434.92 190.876C436.137 202.314 436.748 213.809 436.752 225.312L436.526 233.936C436.526 234.651 436.526 235.371 436.453 236.092L436.301 238.242L435.991 242.544L435.676 246.845L435.151 251.13L434.626 255.416L434.374 257.561L434.022 259.665C433.544 262.504 433.093 265.344 432.594 268.178L430.773 276.617C430.494 278.032 430.095 279.415 429.723 280.824L428.605 284.994L428.043 287.097L427.759 288.149L427.429 289.2L426.101 293.312C422.546 304.277 418.032 314.905 412.609 325.073L408.32 332.571L407.795 333.512L407.212 334.422L406.052 336.241L403.779 339.848L402.614 341.662L401.354 343.419L398.834 346.926L397.574 348.682L396.944 349.56L396.272 350.402L393.579 353.783C386.36 362.759 378.392 371.104 369.762 378.728L363.184 384.312L356.359 389.571C351.714 392.952 347.015 396.28 342.123 399.304C332.384 405.425 322.24 410.871 311.759 415.605C301.25 420.256 290.477 424.282 279.495 427.662L275.369 428.892L273.305 429.508L272.256 429.818L271.206 430.086L262.869 432.258L261.819 432.531L260.769 432.762L258.67 433.236L254.47 434.172C253.068 434.471 251.677 434.824 250.27 435.081L246.039 435.875C243.215 436.401 240.401 436.98 237.561 437.384L233.303 438.052L229.036 438.578L226.899 438.852C226.185 438.936 225.471 438.999 224.757 439.067L220.473 439.488C219.04 439.619 217.607 439.693 216.174 439.798C214.741 439.903 213.313 440.014 211.88 440.05C188.891 441.21 165.869 438.524 143.761 432.105C121.677 425.621 100.869 415.385 82.246 401.844C63.594 388.333 47.3377 371.783 34.1544 352.884C30.8681 348.151 27.7551 343.335 24.8835 338.355C22.012 333.375 19.3505 328.28 16.9146 323.069C12.0295 312.653 8.16179 301.788 5.36551 290.625C2.5179 279.467 0.957317 268.019 0.714355 256.504C0.714355 255.069 0.714355 253.612 0.714355 252.193C0.714355 250.773 0.808848 249.316 0.850845 247.881C0.892842 246.445 1.02933 245.01 1.11858 243.574L1.26556 241.424L1.45455 239.278C1.92701 233.547 2.66721 227.841 3.55439 222.162C7.17369 199.424 13.5063 177.202 22.4162 155.976L22.7627 156.129Z" fill="url(#paint0_linear)"/>
<path d="M8.69913 212.755L8.87236 220.485L8.91436 222.415C8.91436 223.062 8.91436 223.703 8.99311 224.345L9.25034 228.204L9.51282 232.059L9.63881 233.988C9.68605 234.63 9.78055 235.271 9.84354 235.908L10.715 243.59C10.8305 244.873 11.0719 246.14 11.2662 247.418L11.8751 251.23L12.4841 255.048L13.2663 258.834L14.0537 262.62C14.3267 263.877 14.5419 265.149 14.8884 266.39L16.8098 273.878C17.1037 275.129 17.508 276.354 17.8597 277.59L18.9989 281.271L20.1328 284.952L21.4452 288.591L22.7628 292.245C23.1985 293.46 23.6238 294.674 24.1435 295.852L27.1042 302.993C31.3153 312.405 36.1796 321.51 41.6614 330.241C47.235 338.906 53.4412 347.146 60.2293 354.892L65.4316 360.598C67.2322 362.433 69.1064 364.226 70.907 366.04C72.7076 367.854 74.6657 369.552 76.5713 371.298L79.4533 373.87C79.9205 374.311 80.4245 374.716 80.9285 375.116L82.4299 376.325C90.3608 382.894 98.8166 388.799 107.712 393.983L111.045 395.923L112.715 396.896C113.277 397.211 113.854 397.49 114.426 397.79L121.282 401.328C121.849 401.633 122.437 401.896 123.025 402.159L124.778 402.953L128.296 404.531C129.472 405.056 130.626 405.614 131.818 406.108L135.409 407.523L138.994 408.942L140.79 409.647C141.388 409.878 142.008 410.068 142.611 410.278L149.924 412.749C151.131 413.191 152.386 413.496 153.599 413.859L157.31 414.911L161.022 415.962C162.271 416.272 163.526 416.546 164.775 416.846C167.285 417.413 169.783 418.034 172.298 418.57L179.889 419.953L181.784 420.3L182.734 420.469L183.69 420.595L187.511 421.121L191.338 421.646C192.614 421.815 193.884 422.004 195.17 422.088L202.824 422.735L204.746 422.898C205.386 422.961 206.032 422.961 206.672 422.998L210.526 423.15L214.379 423.308C215.665 423.361 216.951 423.429 218.237 423.392L225.949 423.34C226.595 423.34 227.235 423.34 227.875 423.308L229.802 423.203L233.655 422.982L237.503 422.761C238.789 422.688 240.06 422.504 241.341 422.383C243.897 422.093 246.459 421.857 249.005 421.525L256.643 420.3L258.549 419.995C259.179 419.874 259.809 419.732 260.434 419.601L264.208 418.796L267.982 417.997C268.612 417.876 269.227 417.692 269.851 417.529L271.715 417.003L275.437 416.01L277.301 415.51L278.235 415.258C278.539 415.168 278.844 415.063 279.154 414.968L286.503 412.592C296.209 409.215 305.648 405.112 314.741 400.319C323.773 395.387 332.423 389.781 340.616 383.55L346.664 378.76L352.475 373.685L353.929 372.413C354.402 371.977 354.858 371.524 355.32 371.077L358.102 368.401L360.88 365.719C361.777 364.799 362.649 363.852 363.504 362.917L366.155 360.109L367.478 358.705C367.914 358.231 368.318 357.732 368.743 357.248L373.767 351.385C376.917 347.331 380.177 343.324 383.075 339.065L385.301 335.91C385.684 335.384 386.03 334.858 386.351 334.306L387.401 332.681L389.5 329.426L390.55 327.802C390.902 327.276 391.243 326.718 391.558 326.156L395.427 319.467C396.094 318.368 396.671 317.217 397.265 316.076L399.049 312.647C403.78 303.495 407.879 294.029 411.318 284.316C411.759 283.101 412.215 281.897 412.635 280.682L413.806 277.001L414.977 273.32C415.37 272.095 415.769 270.87 416.09 269.64L418.121 262.183C418.483 260.948 418.741 259.686 419.035 258.429L419.896 254.664L420.757 250.894C421.014 249.632 421.234 248.365 421.47 247.097C421.932 244.563 422.436 242.034 422.862 239.494C423.57 234.393 424.436 229.309 424.851 224.171C428.354 193.317 424.507 162.07 413.628 132.992C406.391 113.652 396.197 95.556 383.411 79.3525C357.662 46.7786 322.566 22.8904 282.849 10.9053C263.097 4.96125 242.579 1.96168 221.954 2.003V1.74008C242.599 1.6915 263.138 4.68574 282.912 10.6266C322.687 22.6235 357.84 46.5342 383.642 79.1422C396.467 95.3573 406.702 113.469 413.979 132.829C424.893 161.954 428.77 193.253 425.292 224.166C424.856 229.309 424.011 234.404 423.303 239.515C422.877 242.06 422.373 244.594 421.917 247.134C421.675 248.401 421.455 249.674 421.197 250.936L420.337 254.711L419.476 258.482C419.182 259.738 418.924 261.006 418.562 262.241L416.531 269.713C416.21 270.965 415.811 272.19 415.418 273.42L414.247 277.101L413.076 280.782C412.656 282.002 412.194 283.206 411.759 284.421C408.317 294.155 404.214 303.642 399.48 312.815L397.69 316.249C397.097 317.395 396.519 318.547 395.852 319.651L391.978 326.356C391.663 326.918 391.317 327.465 390.965 328.001L389.915 329.632L387.815 332.892L386.765 334.522C386.424 335.048 386.078 335.61 385.715 336.131L383.484 339.286C380.587 343.555 377.337 347.573 374.161 351.632L369.127 357.516C368.707 358 368.302 358.505 367.861 358.973L366.533 360.382L363.882 363.2C362.995 364.136 362.124 365.088 361.226 366.014L358.438 368.701L355.656 371.382C355.189 371.829 354.732 372.287 354.26 372.723L352.811 374.027L346.984 379.123L340.915 383.923C324.545 396.562 306.217 406.428 286.661 413.128L279.311 415.505C279.007 415.605 278.702 415.71 278.392 415.799L277.458 416.046L275.589 416.572L271.851 417.571L269.983 418.097C269.363 418.26 268.744 418.439 268.108 418.56L264.329 419.364L260.544 420.169C259.914 420.295 259.284 420.442 258.654 420.563L256.743 420.863L249.105 422.078C246.548 422.404 243.981 422.645 241.419 422.929C240.139 423.05 238.863 423.234 237.577 423.308L233.713 423.529L229.855 423.744L227.923 423.855C227.282 423.892 226.637 423.855 225.991 423.881L218.263 423.928C216.972 423.965 215.686 423.897 214.4 423.839L210.536 423.681L206.678 423.524C206.032 423.492 205.386 423.487 204.746 423.429L202.819 423.261L195.118 422.588C193.832 422.503 192.556 422.309 191.28 422.141L187.448 421.615L183.621 421.089L182.661 420.958C182.346 420.91 182.031 420.847 181.71 420.789L179.81 420.442L172.203 419.049C169.684 418.523 167.185 417.892 164.67 417.319C163.416 417.019 162.161 416.746 160.911 416.43L157.195 415.379L153.473 414.327C152.239 413.959 150.984 413.654 149.772 413.212L142.454 410.683C141.85 410.473 141.231 410.283 140.632 410.052L138.832 409.342L135.236 407.922L131.64 406.497C130.448 406.013 129.288 405.446 128.112 404.92L124.589 403.342L122.831 402.538C122.243 402.275 121.655 402.012 121.088 401.707L114.216 398.158C113.649 397.858 113.067 397.574 112.505 397.258L110.835 396.286L107.491 394.34C98.5819 389.139 90.1123 383.216 82.1674 376.63L80.666 375.415C80.141 375.011 79.6581 374.606 79.1856 374.169L76.3088 371.572C74.4032 369.842 72.4294 368.175 70.634 366.313C68.8386 364.452 66.9593 362.696 65.1587 360.85L59.9458 355.134C53.1499 347.366 46.9366 339.106 41.3569 330.42C35.8857 321.668 31.032 312.544 26.8313 303.114L23.8652 295.968C23.3403 294.785 22.9256 293.565 22.4898 292.35L21.1879 288.717L19.8755 285.078L18.7416 281.397L17.6077 277.716C17.2297 276.481 16.8308 275.255 16.5315 273.999L14.6154 266.5C14.269 265.254 14.0537 263.982 13.7807 262.72L12.9671 258.871L12.1901 255.085L11.5812 251.262L10.9722 247.439C10.7832 246.161 10.5365 244.894 10.421 243.611L9.55481 235.918C9.49182 235.277 9.39732 234.635 9.35533 233.994L9.22409 232.064L8.96686 228.199L8.70963 224.339C8.65713 223.698 8.64663 223.051 8.63613 222.404L8.58889 220.485L8.4209 212.75L8.69913 212.755Z" fill="url(#paint1_linear)"/>
<path d="M244.102 420.658C266.056 415.315 287.59 408.064 307.916 398.163C328.243 388.261 347.246 375.626 363.667 360.093C371.889 352.346 379.394 343.868 386.088 334.764C392.773 325.651 398.597 315.936 403.485 305.743L405.244 301.889L406.126 299.964C406.42 299.323 406.724 298.681 406.971 298.024L410.121 290.136L412.882 282.128C413.129 281.46 413.307 280.777 413.507 280.104L414.1 278.069L415.292 273.999C418.253 263.09 420.373 251.969 421.633 240.735L422.069 236.528L422.289 234.425L422.394 233.373L422.457 232.322L422.982 223.861C423.04 223.156 423.051 222.446 423.061 221.758L423.103 219.654L423.187 215.416L423.229 213.313V212.261L423.203 211.209L423.103 206.971C423.03 204.148 423.024 201.319 422.767 198.5L422.473 194.294L422.326 192.19C422.274 191.486 422.242 190.781 422.142 190.087L421.161 181.674C421.024 180.264 420.746 178.876 420.531 177.467L419.838 173.287C417.88 162.152 415.072 151.184 411.438 140.48C407.715 129.811 403.136 119.46 397.747 109.53C392.386 99.585 386.155 90.1357 379.127 81.2928C372.097 72.4546 364.345 64.2179 355.95 56.6682L352.769 53.8813L351.194 52.4879L350.401 51.6939L349.572 51.0366L342.936 45.7783C340.663 44.1114 338.348 42.4971 336.059 40.846C335.487 40.4411 334.92 40.0205 334.337 39.6208L332.558 38.4798L328.999 36.1872C319.448 30.1585 309.444 24.8842 299.076 20.4123C288.67 16.0345 277.969 12.3955 267.053 9.52235L258.853 7.5242C258.171 7.34542 257.478 7.21396 256.785 7.08251L254.685 6.67762L250.527 5.86784L248.496 5.48924C247.803 5.35253 247.11 5.2053 246.396 5.1159L242.196 4.50068L237.997 3.88021L235.897 3.57522L233.797 3.35963L225.398 2.49727C224.694 2.41314 223.991 2.38685 223.298 2.34478L221.198 2.21859L216.972 1.9767C215.565 1.89783 214.158 1.79792 212.772 1.74008L208.541 1.65069C207.134 1.60862 205.722 1.65069 204.315 1.65069H202.215L200.115 1.72431C197.296 1.79266 194.488 1.99774 191.674 2.17126C188.866 2.43418 186.052 2.66554 183.275 3.03888C177.679 3.74349 172.104 4.61637 166.597 5.84681C144.474 10.6607 123.343 19.2538 104.132 31.2496C84.9446 43.2353 67.7739 58.1894 53.2577 75.556C38.7373 92.9207 26.9878 112.432 18.4266 133.397C9.87751 154.378 4.76173 176.603 3.27619 199.215C2.51468 210.511 2.75359 221.852 3.99013 233.105C5.27296 244.34 7.51398 255.444 10.6886 266.295C13.8593 277.158 17.9151 287.742 22.8152 297.94C27.6996 308.145 33.3266 317.976 39.6507 327.355L39.3462 327.565C32.9877 318.18 27.329 308.338 22.4163 298.119C17.4735 287.914 13.3756 277.319 10.1637 266.443C6.96189 255.558 4.69801 244.419 3.39693 233.147C2.13132 221.868 1.8643 210.499 2.59899 199.173C4.04507 176.484 9.14898 154.179 17.7126 133.124C26.2878 112.075 38.0638 92.4817 52.6225 75.0407C67.1841 57.5948 84.4113 42.5682 103.664 30.5187C122.935 18.4698 144.13 9.82902 166.324 4.97393C171.857 3.74349 177.458 2.87061 183.075 2.13445C185.884 1.76111 188.708 1.52449 191.532 1.26158C194.357 0.998661 197.186 0.872462 200.016 0.804104L202.142 0.730488L204.268 0.730488C205.685 0.730488 207.103 0.688422 208.515 0.730488L212.767 0.819879C214.179 0.87772 215.591 0.977628 217.009 1.05124L221.245 1.29313L223.345 1.41932C224.054 1.46139 224.762 1.48768 225.445 1.57182L233.891 2.42892L235.991 2.64451L238.091 2.94949L242.291 3.56471L246.49 4.18519C247.189 4.27458 247.882 4.42181 248.59 4.55327L250.69 4.95816L254.864 5.76267L256.963 6.16756C257.662 6.29902 258.355 6.43048 259.063 6.60926L267.326 8.57586C278.29 11.4516 289.038 15.0976 299.491 19.4868C309.907 23.971 319.959 29.2611 329.555 35.309L333.135 37.6069L334.92 38.7532C335.508 39.1528 336.08 39.5735 336.658 39.9837C338.962 41.6348 341.283 43.2648 343.566 44.9475L350.233 50.2058L351.063 50.8683L351.866 51.5677L353.488 52.9979L356.685 55.8006C365.113 63.3974 372.895 71.6833 379.951 80.5724C387.007 89.466 393.263 98.968 398.645 108.967C404.049 118.95 408.639 129.353 412.373 140.075C416.008 150.829 418.816 161.846 420.772 173.029L421.46 177.236C421.68 178.634 421.953 180.028 422.09 181.442L423.072 189.898C423.166 190.597 423.198 191.307 423.25 192.001L423.397 194.104L423.691 198.348C423.943 201.177 423.943 204.016 424.016 206.85L424.111 211.104V212.156V213.208L424.069 215.337L423.98 219.586L423.938 221.716C423.938 222.425 423.938 223.13 423.854 223.819L423.329 232.311L423.261 233.363L423.156 234.414L422.93 236.518L422.489 240.751C421.211 252.028 419.073 263.19 416.095 274.141L414.866 278.326L414.268 280.367C414.068 281.045 413.885 281.734 413.638 282.401L410.856 290.42L407.706 298.308C407.459 298.976 407.149 299.612 406.855 300.259L405.984 302.215L404.21 306.08C399.295 316.311 393.439 326.062 386.718 335.205C379.987 344.337 372.446 352.841 364.187 360.613C347.656 376.183 328.5 388.75 308.158 398.657C287.815 408.564 266.161 415.725 244.186 421.015L244.102 420.658Z" fill="url(#paint2_linear)"/>
<path d="M393.606 323.474C403.9 303.587 410.62 281.933 414.126 259.849C417.633 237.764 418.289 215.101 414.583 193C410.858 170.882 403.5 149.535 392.808 129.827L390.828 126.146L388.687 122.539L386.561 118.916C386.193 118.322 385.862 117.706 385.469 117.128L384.314 115.377L382.004 111.875L380.854 110.124C380.471 109.54 380.088 108.951 379.668 108.394L374.733 101.611C367.947 92.7196 360.533 84.3269 352.548 76.4972C350.517 74.5779 348.501 72.6376 346.459 70.7131L340.123 65.2234C339.073 64.2874 337.975 63.4356 336.878 62.568L333.592 59.9704C332.484 59.1185 331.419 58.2141 330.28 57.3991L326.878 54.9592C324.599 53.3344 322.363 51.657 319.99 50.1794L316.473 47.8973L314.72 46.7563L313.838 46.1884L312.935 45.6625L305.717 41.4349L304.808 40.909L303.884 40.42L302.026 39.4472L298.288 37.4964L296.435 36.5236L295.506 36.0399L294.556 35.5982L290.755 33.8314L286.954 32.0646L286.004 31.6282L285.033 31.2338L283.096 30.4398L279.217 28.8623L277.274 28.0683L276.319 27.6844L275.332 27.3374L267.394 24.5558C256.767 21.1045 245.905 18.4212 234.894 16.5263L226.6 15.359L224.526 15.0698C223.833 14.9857 223.135 14.9383 222.426 14.8752L218.227 14.5019L214.053 14.1286C213.36 14.0497 212.662 14.0444 211.953 14.0129L209.854 13.934L205.654 13.7763C204.263 13.7394 202.866 13.629 201.454 13.6816L193.055 13.792C192.357 13.792 191.658 13.8394 190.955 13.8867L188.855 14.0234L184.655 14.2916C181.863 14.4072 179.096 14.8174 176.324 15.1276L172.167 15.6219C170.781 15.8217 169.411 16.0794 168.035 16.3107L163.909 17.0154L161.846 17.3729L159.804 17.8357L155.72 18.7559L153.677 19.2186C152.995 19.3763 152.307 19.5078 151.641 19.7129L143.761 21.9844C143.084 22.158 142.422 22.3946 141.766 22.6154L139.782 23.299L135.818 24.6451C125.302 28.4103 115.138 33.0978 105.444 38.6532L101.843 40.7934C100.646 41.519 99.4175 42.1816 98.2731 42.9808L91.2964 47.6239L84.5664 52.614L83.7265 53.2345L82.9128 53.9023L81.2959 55.2326L78.0621 57.8933C69.544 65.1311 61.6584 73.0842 54.4914 81.6661L51.8666 84.921C50.9899 86.0094 50.0765 87.0663 49.2733 88.2126L44.2862 94.9643L39.6508 101.953C38.8476 103.099 38.1809 104.329 37.4512 105.518L35.3041 109.12C29.7043 118.802 24.867 128.908 20.8362 139.344L17.9699 147.232C17.1089 149.892 16.2952 152.569 15.4553 155.24L14.8359 157.238L14.3109 159.268L13.261 163.327C12.9145 164.684 12.5418 166.03 12.2111 167.392L11.3396 171.493C10.0745 176.946 9.23978 182.483 8.36309 188.005L7.37617 196.339C7.18193 197.722 7.09794 199.121 6.99819 200.514L6.69372 204.721C5.00859 227.042 7.82763 249.611 14.1587 271.054C17.331 281.788 21.3346 292.257 26.133 302.367C40.653 332.761 61.6343 359.606 87.6059 381.021C104.877 395.218 124.29 406.86 145.173 414.853C166.075 422.959 188.285 427.156 210.699 427.236V427.446C188.255 427.379 166.013 423.189 145.079 415.084C124.164 407.097 104.72 395.428 87.4169 381.242C61.3895 359.818 40.3607 332.947 25.8075 302.514C20.9945 292.391 16.9769 281.908 13.7912 271.159C7.43916 249.679 4.59912 227.068 6.27375 204.694L6.57823 200.488C6.67272 199.089 6.76196 197.69 6.95095 196.281L7.93787 187.931C8.81981 182.41 9.63875 176.841 10.9092 171.399L11.7806 167.287C12.1061 165.925 12.4788 164.574 12.8305 163.217L13.8804 159.152L14.4054 157.117L15.0248 155.109C15.8648 152.437 16.6732 149.756 17.5394 147.09L20.4057 139.202C24.441 128.742 29.2817 118.613 34.8841 108.904L37.0365 105.292C37.7661 104.098 38.4381 102.862 39.2413 101.716L43.8819 94.7119L48.8586 87.934C49.6618 86.7877 50.5804 85.7255 51.4834 84.6318L54.1082 81.3769C61.2879 72.765 69.1913 64.7853 77.7314 57.5252L80.9809 54.8488L82.603 53.5132L83.4115 52.8454L84.2567 52.2196L91.0077 47.2032L98.0001 42.5444C99.1498 41.7399 100.383 41.0721 101.575 40.3464L105.182 38.201C114.897 32.6275 125.086 27.9275 135.629 24.1561L139.609 22.81L141.598 22.1369C142.26 21.9108 142.921 21.6795 143.598 21.5007L151.683 19.2291C152.349 19.024 153.037 18.8926 153.719 18.7348L155.767 18.2721L159.862 17.3519L161.909 16.8892L163.977 16.5316L168.119 15.827C169.5 15.6009 170.875 15.338 172.256 15.1382L176.429 14.6491C179.201 14.3599 181.994 13.9287 184.797 13.8341L188.997 13.5659L191.097 13.4292C191.795 13.3819 192.493 13.3346 193.197 13.3398L201.596 13.2346C202.992 13.1821 204.389 13.2925 205.796 13.3293L209.995 13.4923L212.095 13.5712C212.793 13.6027 213.497 13.6132 214.195 13.6921L218.395 14.0655L222.594 14.4388C223.287 14.5072 223.985 14.5545 224.694 14.6386L226.794 14.9278L235.104 16.1057C246.132 18.011 257.009 20.7049 267.652 24.1666L275.568 26.9641L276.56 27.3111L277.531 27.7055L279.474 28.4995L283.358 30.077L285.301 30.871L286.272 31.2653L287.228 31.707L291.033 33.4791L294.839 35.2511L295.79 35.6928L296.719 36.1766L298.577 37.1494L302.194 39.0739L304.052 40.0519L304.982 40.5357L305.885 41.0615L313.129 45.3102L314.032 45.8361L314.914 46.4355L316.673 47.5818L320.19 49.8692C322.568 51.352 324.809 53.0242 327.088 54.6542L330.495 57.1046C331.634 57.9249 332.705 58.8293 333.807 59.6864L337.104 62.3156C338.201 63.1832 339.309 64.0403 340.348 64.9763L346.695 70.4817C348.737 72.3904 350.753 74.3308 352.79 76.2658C360.786 84.1027 368.212 92.5024 375.011 101.4L379.946 108.199C380.371 108.757 380.749 109.34 381.132 109.929L382.287 111.686L384.597 115.193L385.752 116.944C386.146 117.528 386.477 118.143 386.844 118.742L388.991 122.355L391.133 125.967L393.112 129.674C403.807 149.416 411.164 170.797 414.882 192.947L416.079 201.266C416.378 204.053 416.604 206.845 416.861 209.637L417.05 211.74L417.124 213.844L417.281 218.05C417.318 219.449 417.407 220.848 417.407 222.257L417.334 226.464C417.276 229.266 417.276 232.069 417.071 234.877C416.982 236.27 416.924 237.674 416.809 239.084L416.462 243.29C416.363 244.689 416.195 246.082 416.048 247.497C415.901 248.911 415.764 250.284 415.58 251.672C415.197 254.448 414.861 257.23 414.389 259.991C410.85 282.007 404.105 303.666 393.789 323.548L393.606 323.474Z" fill="url(#paint3_linear)"/>
</g>
<defs>
<linearGradient id="paint0_linear" x1="218.733" y1="5.02649" x2="218.733" y2="440.313" gradientUnits="userSpaceOnUse">
<stop stop-color="#DA485E"/>
<stop offset="0.714915" stop-color="#FDAF7E"/>
<stop offset="1" stop-color="#898887"/>
</linearGradient>
<linearGradient id="paint1_linear" x1="217.475" y1="1.7395" x2="217.475" y2="423.939" gradientUnits="userSpaceOnUse">
<stop stop-color="#DA485E"/>
<stop offset="0.714915" stop-color="#FDAF7E"/>
<stop offset="1" stop-color="#898887"/>
</linearGradient>
<linearGradient id="paint2_linear" x1="213.153" y1="0.711792" x2="213.153" y2="421.015" gradientUnits="userSpaceOnUse">
<stop stop-color="#DA485E"/>
<stop offset="0.714915" stop-color="#FDAF7E"/>
<stop offset="1" stop-color="#898887"/>
</linearGradient>
<linearGradient id="paint3_linear" x1="211.604" y1="13.2207" x2="211.604" y2="427.446" gradientUnits="userSpaceOnUse">
<stop stop-color="#DA485E"/>
<stop offset="0.714915" stop-color="#FDAF7E"/>
<stop offset="1" stop-color="#898887"/>
</linearGradient>
<clipPath id="clip0">
<rect width="436.069" height="439.614" fill="white" transform="translate(0.714355 0.688354)"/>
</clipPath>
</defs>
</svg>
